<svg width="32" height="36" viewBox="0 0 32 36" fill="none" xmlns="http://www.w3.org/2000/svg">
<rect y="2" width="32" height="32" rx="4" fill="#E0E0E0"/>
<path d="M18.464 26L14.624 19.328H12.536V26H9.8V9.32H15.56C16.84 9.32 17.92 9.544 18.8 9.992C19.696 10.44 20.36 11.04 20.792 11.792C21.24 12.544 21.464 13.384 21.464 14.312C21.464 15.4 21.144 16.392 20.504 17.288C19.88 18.168 18.912 18.768 17.6 19.088L21.728 26H18.464ZM12.536 17.144H15.56C16.584 17.144 17.352 16.888 17.864 16.376C18.392 15.864 18.656 15.176 18.656 14.312C18.656 13.448 18.4 12.776 17.888 12.296C17.376 11.8 16.6 11.552 15.56 11.552H12.536V17.144Z" fill="#555555"/>
</svg>
