<svg viewBox="0 0 256 256" xmlns="http://www.w3.org/2000/svg"><path fill="none" d="M0 0h256v256H0z"></path><path d="M94 61.4a20 20 0 0 1 34.6-20l30 51.9" fill="none" stroke="#808080" stroke-linecap="round" stroke-linejoin="round" stroke-width="16" class="stroke-000000"></path><path d="m67.4 95.2-16-27.7a20 20 0 0 1 34.6-20l34 58.9" fill="none" stroke="#808080" stroke-linecap="round" stroke-linejoin="round" stroke-width="16" class="stroke-000000"></path><path d="M154 165.3a39.9 39.9 0 0 1 14.6-54.6l-10-17.4a20 20 0 0 1 34.7-20l20 34.7a80 80 0 0 1-138.6 80l-42-72.8a20 20 0 0 1 34.7-20l22 38.1M81.1 240A110.3 110.3 0 0 1 48 204M176 31a51.7 51.7 0 0 1 45 26" fill="none" stroke="#808080" stroke-linecap="round" stroke-linejoin="round" stroke-width="16" class="stroke-000000"></path></svg>