<svg width="90" height="38" viewBox="0 0 90 38" fill="none" xmlns="http://www.w3.org/2000/svg">
<g clip-path="url(#clip0_510_23)">
<path d="M15.316 27H11.676L3.434 14.546V27H-0.206V8.826H3.434L11.676 21.306V8.826H15.316V27ZM17.9771 19.746C17.9771 18.29 18.2631 16.9987 18.8351 15.872C19.4245 14.7453 20.2131 13.8787 21.2011 13.272C22.2065 12.6653 23.3245 12.362 24.5551 12.362C25.6298 12.362 26.5658 12.5787 27.3631 13.012C28.1778 13.4453 28.8278 13.9913 29.3131 14.65V12.596H32.9791V27H29.3131V24.894C28.8451 25.57 28.1951 26.1333 27.3631 26.584C26.5485 27.0173 25.6038 27.234 24.5291 27.234C23.3158 27.234 22.2065 26.922 21.2011 26.298C20.2131 25.674 19.4245 24.7987 18.8351 23.672C18.2631 22.528 17.9771 21.2193 17.9771 19.746ZM29.3131 19.798C29.3131 18.914 29.1398 18.16 28.7931 17.536C28.4465 16.8947 27.9785 16.4093 27.3891 16.08C26.7998 15.7333 26.1671 15.56 25.4911 15.56C24.8151 15.56 24.1911 15.7247 23.6191 16.054C23.0471 16.3833 22.5791 16.8687 22.2151 17.51C21.8685 18.134 21.6951 18.8793 21.6951 19.746C21.6951 20.6127 21.8685 21.3753 22.2151 22.034C22.5791 22.6753 23.0471 23.1693 23.6191 23.516C24.2085 23.8627 24.8325 24.036 25.4911 24.036C26.1671 24.036 26.7998 23.8713 27.3891 23.542C27.9785 23.1953 28.4465 22.71 28.7931 22.086C29.1398 21.4447 29.3131 20.682 29.3131 19.798ZM44.5162 12.388C46.2322 12.388 47.6189 12.934 48.6762 14.026C49.7336 15.1007 50.2622 16.6087 50.2622 18.55V27H46.6222V19.044C46.6222 17.9 46.3362 17.0247 45.7642 16.418C45.1922 15.794 44.4122 15.482 43.4242 15.482C42.4189 15.482 41.6216 15.794 41.0322 16.418C40.4602 17.0247 40.1742 17.9 40.1742 19.044V27H36.5342V12.596H40.1742V14.39C40.6596 13.766 41.2749 13.2807 42.0202 12.934C42.7829 12.57 43.6149 12.388 44.5162 12.388ZM52.7877 19.798C52.7877 18.3073 53.091 17.0073 53.6977 15.898C54.3044 14.7713 55.145 13.9047 56.2197 13.298C57.2944 12.674 58.525 12.362 59.9117 12.362C61.697 12.362 63.1704 12.8127 64.3317 13.714C65.5104 14.598 66.299 15.846 66.6977 17.458H62.7717C62.5637 16.834 62.2084 16.3487 61.7057 16.002C61.2204 15.638 60.6137 15.456 59.8857 15.456C58.8457 15.456 58.0224 15.8373 57.4157 16.6C56.809 17.3453 56.5057 18.4113 56.5057 19.798C56.5057 21.1673 56.809 22.2333 57.4157 22.996C58.0224 23.7413 58.8457 24.114 59.8857 24.114C61.359 24.114 62.321 23.4553 62.7717 22.138H66.6977C66.299 23.698 65.5104 24.9373 64.3317 25.856C63.153 26.7747 61.6797 27.234 59.9117 27.234C58.525 27.234 57.2944 26.9307 56.2197 26.324C55.145 25.7 54.3044 24.8333 53.6977 23.724C53.091 22.5973 52.7877 21.2887 52.7877 19.798ZM83.1443 12.596L74.2263 33.812H70.3523L73.4723 26.636L67.7003 12.596H71.7823L75.5003 22.658L79.2703 12.596H83.1443ZM86.7185 27.182C86.0598 27.182 85.5138 26.9827 85.0805 26.584C84.6645 26.168 84.4565 25.6567 84.4565 25.05C84.4565 24.4433 84.6645 23.9407 85.0805 23.542C85.5138 23.126 86.0598 22.918 86.7185 22.918C87.3598 22.918 87.8885 23.126 88.3045 23.542C88.7205 23.9407 88.9285 24.4433 88.9285 25.05C88.9285 25.6567 88.7205 26.168 88.3045 26.584C87.8885 26.9827 87.3598 27.182 86.7185 27.182Z" fill="#555555"/>
</g>
<defs>
<clipPath id="clip0_510_23">
<rect width="90" height="38" fill="white"/>
</clipPath>
</defs>
</svg>
