<svg width="68" height="14" viewBox="0 0 68 14" fill="none" xmlns="http://www.w3.org/2000/svg">
<path d="M5.976 13L3.416 8.552H2.024V13H0.2V1.88H4.04C4.89333 1.88 5.61333 2.02933 6.2 2.328C6.79733 2.62667 7.24 3.02667 7.528 3.528C7.82667 4.02933 7.976 4.58933 7.976 5.208C7.976 5.93333 7.76267 6.59467 7.336 7.192C6.92 7.77867 6.27467 8.17867 5.4 8.392L8.152 13H5.976ZM2.024 7.096H4.04C4.72267 7.096 5.23467 6.92533 5.576 6.584C5.928 6.24267 6.104 5.784 6.104 5.208C6.104 4.632 5.93333 4.184 5.592 3.864C5.25067 3.53333 4.73333 3.368 4.04 3.368H2.024V7.096ZM18.2934 4.184V13H16.4694V11.96C16.1814 12.3227 15.8027 12.6107 15.3334 12.824C14.8747 13.0267 14.384 13.128 13.8614 13.128C13.168 13.128 12.544 12.984 11.9894 12.696C11.4454 12.408 11.0134 11.9813 10.6934 11.416C10.384 10.8507 10.2294 10.168 10.2294 9.368V4.184H12.0374V9.096C12.0374 9.88533 12.2347 10.4933 12.6294 10.92C13.024 11.336 13.5627 11.544 14.2454 11.544C14.928 11.544 15.4667 11.336 15.8614 10.92C16.2667 10.4933 16.4694 9.88533 16.4694 9.096V4.184H18.2934ZM24.188 8.6L28.252 13H25.788L22.524 9.208V13H20.7V1.16H22.524V8.04L25.724 4.184H28.252L24.188 8.6ZM28.9514 8.552C28.9514 7.66667 29.1327 6.88267 29.4954 6.2C29.8687 5.51733 30.37 4.98933 30.9994 4.616C31.6394 4.232 32.3434 4.04 33.1114 4.04C33.8047 4.04 34.4074 4.17867 34.9194 4.456C35.442 4.72267 35.858 5.05867 36.1674 5.464V4.184H38.0074V13H36.1674V11.688C35.858 12.104 35.4367 12.4507 34.9034 12.728C34.37 13.0053 33.762 13.144 33.0794 13.144C32.322 13.144 31.6287 12.952 30.9994 12.568C30.37 12.1733 29.8687 11.6293 29.4954 10.936C29.1327 10.232 28.9514 9.43733 28.9514 8.552ZM36.1674 8.584C36.1674 7.976 36.0394 7.448 35.7834 7C35.538 6.552 35.2127 6.21067 34.8074 5.976C34.402 5.74133 33.9647 5.624 33.4954 5.624C33.026 5.624 32.5887 5.74133 32.1834 5.976C31.778 6.2 31.4474 6.536 31.1914 6.984C30.946 7.42133 30.8234 7.944 30.8234 8.552C30.8234 9.16 30.946 9.69333 31.1914 10.152C31.4474 10.6107 31.778 10.9627 32.1834 11.208C32.5994 11.4427 33.0367 11.56 33.4954 11.56C33.9647 11.56 34.402 11.4427 34.8074 11.208C35.2127 10.9733 35.538 10.632 35.7834 10.184C36.0394 9.72533 36.1674 9.192 36.1674 8.584ZM41.3311 3.016C41.0005 3.016 40.7231 2.904 40.4991 2.68C40.2751 2.456 40.1631 2.17867 40.1631 1.848C40.1631 1.51733 40.2751 1.24 40.4991 1.016C40.7231 0.791999 41.0005 0.679999 41.3311 0.679999C41.6511 0.679999 41.9231 0.791999 42.1471 1.016C42.3711 1.24 42.4831 1.51733 42.4831 1.848C42.4831 2.17867 42.3711 2.456 42.1471 2.68C41.9231 2.904 41.6511 3.016 41.3311 3.016ZM42.2271 4.184V13H40.4031V4.184H42.2271ZM44.0139 8.552C44.0139 7.66667 44.1952 6.88267 44.5579 6.2C44.9312 5.51733 45.4325 4.98933 46.0619 4.616C46.7019 4.232 47.4059 4.04 48.1739 4.04C48.8672 4.04 49.4699 4.17867 49.9819 4.456C50.5045 4.72267 50.9205 5.05867 51.2299 5.464V4.184H53.0699V13H51.2299V11.688C50.9205 12.104 50.4992 12.4507 49.9659 12.728C49.4325 13.0053 48.8245 13.144 48.1419 13.144C47.3845 13.144 46.6912 12.952 46.0619 12.568C45.4325 12.1733 44.9312 11.6293 44.5579 10.936C44.1952 10.232 44.0139 9.43733 44.0139 8.552ZM51.2299 8.584C51.2299 7.976 51.1019 7.448 50.8459 7C50.6005 6.552 50.2752 6.21067 49.8699 5.976C49.4645 5.74133 49.0272 5.624 48.5579 5.624C48.0885 5.624 47.6512 5.74133 47.2459 5.976C46.8405 6.2 46.5099 6.536 46.2539 6.984C46.0085 7.42133 45.8859 7.944 45.8859 8.552C45.8859 9.16 46.0085 9.69333 46.2539 10.152C46.5099 10.6107 46.8405 10.9627 47.2459 11.208C47.6619 11.4427 48.0992 11.56 48.5579 11.56C49.0272 11.56 49.4645 11.4427 49.8699 11.208C50.2752 10.9733 50.6005 10.632 50.8459 10.184C51.1019 9.72533 51.2299 9.192 51.2299 8.584ZM60.0256 4.04C60.6976 4.04 61.295 4.184 61.8176 4.472C62.351 4.76 62.767 5.18667 63.0656 5.752C63.375 6.31733 63.5296 7 63.5296 7.8V13H61.7216V8.072C61.7216 7.28267 61.5243 6.68 61.1296 6.264C60.735 5.83733 60.1963 5.624 59.5136 5.624C58.831 5.624 58.287 5.83733 57.8816 6.264C57.487 6.68 57.2896 7.28267 57.2896 8.072V13H55.4656V1.16H57.2896V5.208C57.599 4.83467 57.9883 4.54667 58.4576 4.344C58.9376 4.14133 59.4603 4.04 60.0256 4.04ZM66.5923 13.112C66.2616 13.112 65.9843 13 65.7603 12.776C65.5363 12.552 65.4243 12.2747 65.4243 11.944C65.4243 11.6133 65.5363 11.336 65.7603 11.112C65.9843 10.888 66.2616 10.776 66.5923 10.776C66.9123 10.776 67.1843 10.888 67.4083 11.112C67.6323 11.336 67.7443 11.6133 67.7443 11.944C67.7443 12.2747 67.6323 12.552 67.4083 12.776C67.1843 13 66.9123 13.112 66.5923 13.112Z" fill="#555555"/>
</svg>
